<svg xmlns="http://www.w3.org/2000/svg" width="868" height="634" style="background-color: #1a1a24; font-family: monospace;">
<text x="20" y="30" fill="#4ea8de" font-size="18" font-weight="bold">Elysia Isometric Causal Engine (Multi-Scale & Intervention)</text>
<text x="20" y="50" fill="#a8b2d1" font-size="14">Scale Lens: MACRO_CIV (L=0.9) | Lens: Gathering</text>
<polygon points="384.0,44.0 416.0,60.0 384.0,76.0 352.0,60.0" fill="#4a7c59" stroke="#2c3e50" stroke-width="0.8"/>
<polygon points="352.0,60.0 384.0,76.0 352.0,92.0 320.0,76.0" fill="#4a7c59" stroke="#2c3e50" stroke-width="0.8"/>
<polygon points="416.0,60.0 448.0,76.0 416.0,92.0 384.0,76.0" fill="#4a7c59" stroke="#2c3e50" stroke-width="0.8"/>
<polygon points="320.0,76.0 352.0,92.0 320.0,108.0 288.0,92.0" fill="#4a7c59" stroke="#2c3e50" stroke-width="0.8"/>
<polygon points="384.0,76.0 416.0,92.0 384.0,108.0 352.0,92.0" fill="#4a7c59" stroke="#2c3e50" stroke-width="0.8"/>
<polygon points="448.0,76.0 480.0,92.0 448.0,108.0 416.0,92.0" fill="#4a7c59" stroke="#2c3e50" stroke-width="0.8"/>
<polygon points="288.0,92.0 320.0,108.0 288.0,124.0 256.0,108.0" fill="#4a7c59" stroke="#2c3e50" stroke-width="0.8"/>
<polygon points="352.0,92.0 384.0,108.0 352.0,124.0 320.0,108.0" fill="#4a7c59" stroke="#2c3e50" stroke-width="0.8"/>
<polygon points="416.0,92.0 448.0,108.0 416.0,124.0 384.0,108.0" fill="#4a7c59" stroke="#2c3e50" stroke-width="0.8"/>
<polygon points="480.0,92.0 512.0,108.0 480.0,124.0 448.0,108.0" fill="#4a7c59" stroke="#2c3e50" stroke-width="0.8"/>
<polygon points="256.0,108.0 288.0,124.0 256.0,140.0 224.0,124.0" fill="#4a7c59" stroke="#2c3e50" stroke-width="0.8"/>
<polygon points="320.0,108.0 352.0,124.0 320.0,140.0 288.0,124.0" fill="#4a7c59" stroke="#2c3e50" stroke-width="0.8"/>
<polygon points="384.0,108.0 416.0,124.0 384.0,140.0 352.0,124.0" fill="#4a7c59" stroke="#2c3e50" stroke-width="0.8"/>
<polygon points="384.0,84.0 403.2,100.0 384.0,109.6 364.8,100.0" fill="#2a9d8f" stroke="#ffffff" stroke-width="1.0"/>
<text x="369.0" y="112.0" fill="#ffffff" font-size="10">farm</text>
<polygon points="448.0,108.0 480.0,124.0 448.0,140.0 416.0,124.0" fill="#4a7c59" stroke="#2c3e50" stroke-width="0.8"/>
<polygon points="512.0,108.0 544.0,124.0 512.0,140.0 480.0,124.0" fill="#4a7c59" stroke="#2c3e50" stroke-width="0.8"/>
<polygon points="224.0,124.0 256.0,140.0 224.0,156.0 192.0,140.0" fill="#4a7c59" stroke="#2c3e50" stroke-width="0.8"/>
<polygon points="288.0,124.0 320.0,140.0 288.0,156.0 256.0,140.0" fill="#4a7c59" stroke="#2c3e50" stroke-width="0.8"/>
<polygon points="352.0,124.0 384.0,140.0 352.0,156.0 320.0,140.0" fill="#4a7c59" stroke="#2c3e50" stroke-width="0.8"/>
<polygon points="416.0,124.0 448.0,140.0 416.0,156.0 384.0,140.0" fill="#4a7c59" stroke="#2c3e50" stroke-width="0.8"/>
<polygon points="480.0,124.0 512.0,140.0 480.0,156.0 448.0,140.0" fill="#4a7c59" stroke="#2c3e50" stroke-width="0.8"/>
<polygon points="544.0,124.0 576.0,140.0 544.0,156.0 512.0,140.0" fill="#4a7c59" stroke="#2c3e50" stroke-width="0.8"/>
<polygon points="192.0,140.0 224.0,156.0 192.0,172.0 160.0,156.0" fill="#4a7c59" stroke="#2c3e50" stroke-width="0.8"/>
<polygon points="256.0,140.0 288.0,156.0 256.0,172.0 224.0,156.0" fill="#4a7c59" stroke="#2c3e50" stroke-width="0.8"/>
<polygon points="320.0,140.0 352.0,156.0 320.0,172.0 288.0,156.0" fill="#4a7c59" stroke="#2c3e50" stroke-width="0.8"/>
<polygon points="384.0,140.0 416.0,156.0 384.0,172.0 352.0,156.0" fill="#4a7c59" stroke="#2c3e50" stroke-width="0.8"/>
<polygon points="448.0,140.0 480.0,156.0 448.0,172.0 416.0,156.0" fill="#4a7c59" stroke="#2c3e50" stroke-width="0.8"/>
<polygon points="512.0,140.0 544.0,156.0 512.0,172.0 480.0,156.0" fill="#4a7c59" stroke="#2c3e50" stroke-width="0.8"/>
<polygon points="576.0,140.0 608.0,156.0 576.0,172.0 544.0,156.0" fill="#4a7c59" stroke="#2c3e50" stroke-width="0.8"/>
<polygon points="160.0,156.0 192.0,172.0 160.0,188.0 128.0,172.0" fill="#4a7c59" stroke="#2c3e50" stroke-width="0.8"/>
<polygon points="224.0,156.0 256.0,172.0 224.0,188.0 192.0,172.0" fill="#4a7c59" stroke="#2c3e50" stroke-width="0.8"/>
<polygon points="288.0,156.0 320.0,172.0 288.0,188.0 256.0,172.0" fill="#4a7c59" stroke="#2c3e50" stroke-width="0.8"/>
<polygon points="352.0,156.0 384.0,172.0 352.0,188.0 320.0,172.0" fill="#4a7c59" stroke="#2c3e50" stroke-width="0.8"/>
<polygon points="352.0,132.0 371.2,148.0 352.0,157.6 332.8,148.0" fill="#e9c46a" stroke="#ffffff" stroke-width="1.0"/>
<text x="337.0" y="160.0" fill="#ffffff" font-size="10">gran</text>
<polygon points="416.0,156.0 448.0,172.0 416.0,188.0 384.0,172.0" fill="#4a7c59" stroke="#2c3e50" stroke-width="0.8"/>
<polygon points="480.0,156.0 512.0,172.0 480.0,188.0 448.0,172.0" fill="#4a7c59" stroke="#2c3e50" stroke-width="0.8"/>
<polygon points="544.0,156.0 576.0,172.0 544.0,188.0 512.0,172.0" fill="#4a7c59" stroke="#2c3e50" stroke-width="0.8"/>
<polygon points="608.0,156.0 640.0,172.0 608.0,188.0 576.0,172.0" fill="#4a7c59" stroke="#2c3e50" stroke-width="0.8"/>
<polygon points="128.0,172.0 160.0,188.0 128.0,204.0 96.0,188.0" fill="#2b5c8f" stroke="#2c3e50" stroke-width="0.8"/>
<polygon points="192.0,172.0 224.0,188.0 192.0,204.0 160.0,188.0" fill="#4a7c59" stroke="#2c3e50" stroke-width="0.8"/>
<polygon points="256.0,172.0 288.0,188.0 256.0,204.0 224.0,188.0" fill="#4a7c59" stroke="#2c3e50" stroke-width="0.8"/>
<polygon points="256.0,148.0 275.2,164.0 256.0,173.6 236.8,164.0" fill="#e76f51" stroke="#ffffff" stroke-width="1.0"/>
<text x="241.0" y="176.0" fill="#ffffff" font-size="10">town</text>
<polygon points="320.0,172.0 352.0,188.0 320.0,204.0 288.0,188.0" fill="#4a7c59" stroke="#2c3e50" stroke-width="0.8"/>
<polygon points="384.0,172.0 416.0,188.0 384.0,204.0 352.0,188.0" fill="#4a7c59" stroke="#2c3e50" stroke-width="0.8"/>
<polygon points="448.0,172.0 480.0,188.0 448.0,204.0 416.0,188.0" fill="#4a7c59" stroke="#2c3e50" stroke-width="0.8"/>
<polygon points="512.0,172.0 544.0,188.0 512.0,204.0 480.0,188.0" fill="#4a7c59" stroke="#2c3e50" stroke-width="0.8"/>
<polygon points="576.0,172.0 608.0,188.0 576.0,204.0 544.0,188.0" fill="#4a7c59" stroke="#2c3e50" stroke-width="0.8"/>
<polygon points="640.0,148.0 672.0,164.0 640.0,180.0 608.0,164.0" fill="#4a7c59" stroke="#ff4d4d" stroke-width="0.8"/>
<polygon points="96.0,188.0 128.0,204.0 96.0,220.0 64.0,204.0" fill="#2b5c8f" stroke="#2c3e50" stroke-width="0.8"/>
<polygon points="160.0,188.0 192.0,204.0 160.0,220.0 128.0,204.0" fill="#4a7c59" stroke="#2c3e50" stroke-width="0.8"/>
<circle cx="160.0" cy="204.0" r="6" fill="#27ae60" stroke="#ffffff" stroke-width="0.8"/>
<polygon points="224.0,188.0 256.0,204.0 224.0,220.0 192.0,204.0" fill="#4a7c59" stroke="#2c3e50" stroke-width="0.8"/>
<polygon points="288.0,188.0 320.0,204.0 288.0,220.0 256.0,204.0" fill="#4a7c59" stroke="#2c3e50" stroke-width="0.8"/>
<polygon points="352.0,188.0 384.0,204.0 352.0,220.0 320.0,204.0" fill="#4a7c59" stroke="#2c3e50" stroke-width="0.8"/>
<polygon points="416.0,188.0 448.0,204.0 416.0,220.0 384.0,204.0" fill="#4a7c59" stroke="#2c3e50" stroke-width="0.8"/>
<polygon points="480.0,188.0 512.0,204.0 480.0,220.0 448.0,204.0" fill="#4a7c59" stroke="#2c3e50" stroke-width="0.8"/>
<polygon points="544.0,188.0 576.0,204.0 544.0,220.0 512.0,204.0" fill="#4a7c59" stroke="#2c3e50" stroke-width="0.8"/>
<polygon points="608.0,164.0 640.0,180.0 608.0,196.0 576.0,180.0" fill="#4a7c59" stroke="#ff4d4d" stroke-width="0.8"/>
<polygon points="672.0,164.0 704.0,180.0 672.0,196.0 640.0,180.0" fill="#4a7c59" stroke="#ff4d4d" stroke-width="0.8"/>
<polygon points="64.0,204.0 96.0,220.0 64.0,236.0 32.0,220.0" fill="#2b5c8f" stroke="#2c3e50" stroke-width="0.8"/>
<polygon points="128.0,204.0 160.0,220.0 128.0,236.0 96.0,220.0" fill="#4a7c59" stroke="#2c3e50" stroke-width="0.8"/>
<polygon points="192.0,204.0 224.0,220.0 192.0,236.0 160.0,220.0" fill="#4a7c59" stroke="#2c3e50" stroke-width="0.8"/>
<polygon points="256.0,204.0 288.0,220.0 256.0,236.0 224.0,220.0" fill="#4a7c59" stroke="#2c3e50" stroke-width="0.8"/>
<polygon points="320.0,204.0 352.0,220.0 320.0,236.0 288.0,220.0" fill="#4a7c59" stroke="#2c3e50" stroke-width="0.8"/>
<polygon points="384.0,204.0 416.0,220.0 384.0,236.0 352.0,220.0" fill="#4a7c59" stroke="#2c3e50" stroke-width="0.8"/>
<polygon points="384.0,180.0 403.2,196.0 384.0,205.6 364.8,196.0" fill="#e76f51" stroke="#ffffff" stroke-width="1.0"/>
<text x="369.0" y="208.0" fill="#ffffff" font-size="10">town</text>
<polygon points="448.0,204.0 480.0,220.0 448.0,236.0 416.0,220.0" fill="#4a7c59" stroke="#2c3e50" stroke-width="0.8"/>
<polygon points="512.0,204.0 544.0,220.0 512.0,236.0 480.0,220.0" fill="#4a7c59" stroke="#2c3e50" stroke-width="0.8"/>
<polygon points="576.0,180.0 608.0,196.0 576.0,212.0 544.0,196.0" fill="#4a7c59" stroke="#ff4d4d" stroke-width="0.8"/>
<polygon points="640.0,180.0 672.0,196.0 640.0,212.0 608.0,196.0" fill="#4a7c59" stroke="#ff4d4d" stroke-width="0.8"/>
<polygon points="704.0,180.0 736.0,196.0 704.0,212.0 672.0,196.0" fill="#4a7c59" stroke="#ff4d4d" stroke-width="0.8"/>
<polygon points="32.0,220.0 64.0,236.0 32.0,252.0 0.0,236.0" fill="#2b5c8f" stroke="#2c3e50" stroke-width="0.8"/>
<polygon points="96.0,220.0 128.0,236.0 96.0,252.0 64.0,236.0" fill="#4a7c59" stroke="#2c3e50" stroke-width="0.8"/>
<polygon points="160.0,220.0 192.0,236.0 160.0,252.0 128.0,236.0" fill="#4a7c59" stroke="#2c3e50" stroke-width="0.8"/>
<circle cx="160.0" cy="236.0" r="6" fill="#27ae60" stroke="#ffffff" stroke-width="0.8"/>
<polygon points="224.0,220.0 256.0,236.0 224.0,252.0 192.0,236.0" fill="#4a7c59" stroke="#2c3e50" stroke-width="0.8"/>
<polygon points="288.0,220.0 320.0,236.0 288.0,252.0 256.0,236.0" fill="#4a7c59" stroke="#2c3e50" stroke-width="0.8"/>
<polygon points="288.0,196.0 307.2,212.0 288.0,221.6 268.8,212.0" fill="#f4a261" stroke="#ffffff" stroke-width="1.0"/>
<text x="273.0" y="224.0" fill="#ffffff" font-size="10">hous</text>
<polygon points="352.0,220.0 384.0,236.0 352.0,252.0 320.0,236.0" fill="#4a7c59" stroke="#2c3e50" stroke-width="0.8"/>
<polygon points="416.0,220.0 448.0,236.0 416.0,252.0 384.0,236.0" fill="#4a7c59" stroke="#2c3e50" stroke-width="0.8"/>
<polygon points="480.0,220.0 512.0,236.0 480.0,252.0 448.0,236.0" fill="#4a7c59" stroke="#2c3e50" stroke-width="0.8"/>
<polygon points="480.0,196.0 499.2,212.0 480.0,221.6 460.8,212.0" fill="#f4a261" stroke="#ffffff" stroke-width="1.0"/>
<text x="465.0" y="224.0" fill="#ffffff" font-size="10">hous</text>
<polygon points="544.0,196.0 576.0,212.0 544.0,228.0 512.0,212.0" fill="#4a7c59" stroke="#ff4d4d" stroke-width="0.8"/>
<polygon points="608.0,196.0 640.0,212.0 608.0,228.0 576.0,212.0" fill="#4a7c59" stroke="#ff4d4d" stroke-width="0.8"/>
<circle cx="608.0" cy="212.0" r="6" fill="#27ae60" stroke="#ffffff" stroke-width="0.8"/>
<polygon points="672.0,196.0 704.0,212.0 672.0,228.0 640.0,212.0" fill="#4a7c59" stroke="#ff4d4d" stroke-width="0.8"/>
<polygon points="736.0,196.0 768.0,212.0 736.0,228.0 704.0,212.0" fill="#4a7c59" stroke="#ff4d4d" stroke-width="0.8"/>
<polygon points="64.0,236.0 96.0,252.0 64.0,268.0 32.0,252.0" fill="#4a7c59" stroke="#2c3e50" stroke-width="0.8"/>
<polygon points="128.0,236.0 160.0,252.0 128.0,268.0 96.0,252.0" fill="#4a7c59" stroke="#2c3e50" stroke-width="0.8"/>
<polygon points="192.0,236.0 224.0,252.0 192.0,268.0 160.0,252.0" fill="#4a7c59" stroke="#2c3e50" stroke-width="0.8"/>
<polygon points="256.0,236.0 288.0,252.0 256.0,268.0 224.0,252.0" fill="#4a7c59" stroke="#2c3e50" stroke-width="0.8"/>
<polygon points="320.0,236.0 352.0,252.0 320.0,268.0 288.0,252.0" fill="#4a7c59" stroke="#2c3e50" stroke-width="0.8"/>
<polygon points="384.0,236.0 416.0,252.0 384.0,268.0 352.0,252.0" fill="#4a7c59" stroke="#2c3e50" stroke-width="0.8"/>
<polygon points="448.0,236.0 480.0,252.0 448.0,268.0 416.0,252.0" fill="#4a7c59" stroke="#2c3e50" stroke-width="0.8"/>
<polygon points="512.0,236.0 544.0,252.0 512.0,268.0 480.0,252.0" fill="#4a7c59" stroke="#2c3e50" stroke-width="0.8"/>
<polygon points="576.0,212.0 608.0,228.0 576.0,244.0 544.0,228.0" fill="#4a7c59" stroke="#ff4d4d" stroke-width="0.8"/>
<polygon points="640.0,212.0 672.0,228.0 640.0,244.0 608.0,228.0" fill="#4a7c59" stroke="#ff4d4d" stroke-width="0.8"/>
<polygon points="704.0,212.0 736.0,228.0 704.0,244.0 672.0,228.0" fill="#4a7c59" stroke="#ff4d4d" stroke-width="0.8"/>
<polygon points="96.0,252.0 128.0,268.0 96.0,284.0 64.0,268.0" fill="#4a7c59" stroke="#2c3e50" stroke-width="0.8"/>
<polygon points="160.0,252.0 192.0,268.0 160.0,284.0 128.0,268.0" fill="#4a7c59" stroke="#2c3e50" stroke-width="0.8"/>
<polygon points="224.0,252.0 256.0,268.0 224.0,284.0 192.0,268.0" fill="#4a7c59" stroke="#2c3e50" stroke-width="0.8"/>
<polygon points="288.0,252.0 320.0,268.0 288.0,284.0 256.0,268.0" fill="#4a7c59" stroke="#2c3e50" stroke-width="0.8"/>
<polygon points="352.0,252.0 384.0,268.0 352.0,284.0 320.0,268.0" fill="#4a7c59" stroke="#2c3e50" stroke-width="0.8"/>
<polygon points="416.0,252.0 448.0,268.0 416.0,284.0 384.0,268.0" fill="#4a7c59" stroke="#2c3e50" stroke-width="0.8"/>
<polygon points="480.0,252.0 512.0,268.0 480.0,284.0 448.0,268.0" fill="#4a7c59" stroke="#2c3e50" stroke-width="0.8"/>
<polygon points="544.0,252.0 576.0,268.0 544.0,284.0 512.0,268.0" fill="#4a7c59" stroke="#2c3e50" stroke-width="0.8"/>
<polygon points="608.0,228.0 640.0,244.0 608.0,260.0 576.0,244.0" fill="#4a7c59" stroke="#ff4d4d" stroke-width="0.8"/>
<circle cx="608.0" cy="244.0" r="6" fill="#27ae60" stroke="#ffffff" stroke-width="0.8"/>
<polygon points="672.0,228.0 704.0,244.0 672.0,260.0 640.0,244.0" fill="#4a7c59" stroke="#ff4d4d" stroke-width="0.8"/>
<polygon points="128.0,268.0 160.0,284.0 128.0,300.0 96.0,284.0" fill="#4a7c59" stroke="#2c3e50" stroke-width="0.8"/>
<polygon points="192.0,268.0 224.0,284.0 192.0,300.0 160.0,284.0" fill="#4a7c59" stroke="#2c3e50" stroke-width="0.8"/>
<polygon points="256.0,268.0 288.0,284.0 256.0,300.0 224.0,284.0" fill="#4a7c59" stroke="#2c3e50" stroke-width="0.8"/>
<polygon points="320.0,268.0 352.0,284.0 320.0,300.0 288.0,284.0" fill="#4a7c59" stroke="#2c3e50" stroke-width="0.8"/>
<polygon points="384.0,268.0 416.0,284.0 384.0,300.0 352.0,284.0" fill="#4a7c59" stroke="#2c3e50" stroke-width="0.8"/>
<polygon points="448.0,268.0 480.0,284.0 448.0,300.0 416.0,284.0" fill="#4a7c59" stroke="#2c3e50" stroke-width="0.8"/>
<polygon points="512.0,268.0 544.0,284.0 512.0,300.0 480.0,284.0" fill="#4a7c59" stroke="#2c3e50" stroke-width="0.8"/>
<polygon points="576.0,268.0 608.0,284.0 576.0,300.0 544.0,284.0" fill="#4a7c59" stroke="#2c3e50" stroke-width="0.8"/>
<polygon points="640.0,244.0 672.0,260.0 640.0,276.0 608.0,260.0" fill="#4a7c59" stroke="#ff4d4d" stroke-width="0.8"/>
<polygon points="160.0,284.0 192.0,300.0 160.0,316.0 128.0,300.0" fill="#4a7c59" stroke="#2c3e50" stroke-width="0.8"/>
<polygon points="224.0,284.0 256.0,300.0 224.0,316.0 192.0,300.0" fill="#4a7c59" stroke="#2c3e50" stroke-width="0.8"/>
<polygon points="288.0,284.0 320.0,300.0 288.0,316.0 256.0,300.0" fill="#4a7c59" stroke="#2c3e50" stroke-width="0.8"/>
<polygon points="352.0,284.0 384.0,300.0 352.0,316.0 320.0,300.0" fill="#4a7c59" stroke="#2c3e50" stroke-width="0.8"/>
<polygon points="416.0,284.0 448.0,300.0 416.0,316.0 384.0,300.0" fill="#4a7c59" stroke="#2c3e50" stroke-width="0.8"/>
<polygon points="480.0,284.0 512.0,300.0 480.0,316.0 448.0,300.0" fill="#4a7c59" stroke="#2c3e50" stroke-width="0.8"/>
<polygon points="544.0,284.0 576.0,300.0 544.0,316.0 512.0,300.0" fill="#4a7c59" stroke="#2c3e50" stroke-width="0.8"/>
<polygon points="608.0,284.0 640.0,300.0 608.0,316.0 576.0,300.0" fill="#4a7c59" stroke="#2c3e50" stroke-width="0.8"/>
<polygon points="192.0,300.0 224.0,316.0 192.0,332.0 160.0,316.0" fill="#4a7c59" stroke="#2c3e50" stroke-width="0.8"/>
<polygon points="256.0,300.0 288.0,316.0 256.0,332.0 224.0,316.0" fill="#4a7c59" stroke="#2c3e50" stroke-width="0.8"/>
<polygon points="320.0,300.0 352.0,316.0 320.0,332.0 288.0,316.0" fill="#4a7c59" stroke="#2c3e50" stroke-width="0.8"/>
<polygon points="384.0,300.0 416.0,316.0 384.0,332.0 352.0,316.0" fill="#4a7c59" stroke="#2c3e50" stroke-width="0.8"/>
<polygon points="384.0,276.0 403.2,292.0 384.0,301.6 364.8,292.0" fill="#8f5d34" stroke="#ffffff" stroke-width="1.0"/>
<text x="369.0" y="304.0" fill="#ffffff" font-size="10">lumb</text>
<polygon points="448.0,300.0 480.0,316.0 448.0,332.0 416.0,316.0" fill="#4a7c59" stroke="#2c3e50" stroke-width="0.8"/>
<polygon points="512.0,300.0 544.0,316.0 512.0,332.0 480.0,316.0" fill="#4a7c59" stroke="#2c3e50" stroke-width="0.8"/>
<polygon points="576.0,300.0 608.0,316.0 576.0,332.0 544.0,316.0" fill="#4a7c59" stroke="#2c3e50" stroke-width="0.8"/>
<polygon points="224.0,316.0 256.0,332.0 224.0,348.0 192.0,332.0" fill="#4a7c59" stroke="#2c3e50" stroke-width="0.8"/>
<polygon points="288.0,316.0 320.0,332.0 288.0,348.0 256.0,332.0" fill="#4a7c59" stroke="#2c3e50" stroke-width="0.8"/>
<polygon points="352.0,316.0 384.0,332.0 352.0,348.0 320.0,332.0" fill="#4a7c59" stroke="#2c3e50" stroke-width="0.8"/>
<polygon points="416.0,316.0 448.0,332.0 416.0,348.0 384.0,332.0" fill="#4a7c59" stroke="#2c3e50" stroke-width="0.8"/>
<polygon points="480.0,316.0 512.0,332.0 480.0,348.0 448.0,332.0" fill="#4a7c59" stroke="#2c3e50" stroke-width="0.8"/>
<polygon points="544.0,316.0 576.0,332.0 544.0,348.0 512.0,332.0" fill="#4a7c59" stroke="#2c3e50" stroke-width="0.8"/>
<polygon points="256.0,332.0 288.0,348.0 256.0,364.0 224.0,348.0" fill="#4a7c59" stroke="#2c3e50" stroke-width="0.8"/>
<polygon points="320.0,332.0 352.0,348.0 320.0,364.0 288.0,348.0" fill="#4a7c59" stroke="#2c3e50" stroke-width="0.8"/>
<polygon points="384.0,332.0 416.0,348.0 384.0,364.0 352.0,348.0" fill="#4a7c59" stroke="#2c3e50" stroke-width="0.8"/>
<polygon points="448.0,332.0 480.0,348.0 448.0,364.0 416.0,348.0" fill="#4a7c59" stroke="#2c3e50" stroke-width="0.8"/>
<polygon points="512.0,332.0 544.0,348.0 512.0,364.0 480.0,348.0" fill="#4a7c59" stroke="#2c3e50" stroke-width="0.8"/>
<polygon points="288.0,348.0 320.0,364.0 288.0,380.0 256.0,364.0" fill="#4a7c59" stroke="#2c3e50" stroke-width="0.8"/>
<polygon points="352.0,348.0 384.0,364.0 352.0,380.0 320.0,364.0" fill="#4a7c59" stroke="#2c3e50" stroke-width="0.8"/>
<polygon points="416.0,348.0 448.0,364.0 416.0,380.0 384.0,364.0" fill="#4a7c59" stroke="#2c3e50" stroke-width="0.8"/>
<polygon points="480.0,348.0 512.0,364.0 480.0,380.0 448.0,364.0" fill="#4a7c59" stroke="#2c3e50" stroke-width="0.8"/>
<polygon points="320.0,364.0 352.0,380.0 320.0,396.0 288.0,380.0" fill="#4a7c59" stroke="#2c3e50" stroke-width="0.8"/>
<polygon points="384.0,364.0 416.0,380.0 384.0,396.0 352.0,380.0" fill="#4a7c59" stroke="#2c3e50" stroke-width="0.8"/>
<polygon points="448.0,364.0 480.0,380.0 448.0,396.0 416.0,380.0" fill="#4a7c59" stroke="#2c3e50" stroke-width="0.8"/>
<polygon points="352.0,380.0 384.0,396.0 352.0,412.0 320.0,396.0" fill="#4a7c59" stroke="#2c3e50" stroke-width="0.8"/>
<polygon points="416.0,380.0 448.0,396.0 416.0,412.0 384.0,396.0" fill="#4a7c59" stroke="#2c3e50" stroke-width="0.8"/>
<polygon points="384.0,396.0 416.0,412.0 384.0,428.0 352.0,412.0" fill="#4a7c59" stroke="#2c3e50" stroke-width="0.8"/>
<circle cx="379.1009826660156" cy="245.5504913330078" r="5" fill="#f1c40f" stroke="#000000" stroke-width="1.5"/>
<text x="385.1009826660156" y="245.5504913330078" fill="#f1c40f" font-size="10">npc_1</text>
<circle cx="369.23931884765625" cy="225.85897827148438" r="5" fill="#f1c40f" stroke="#000000" stroke-width="1.5"/>
<text x="375.23931884765625" y="225.85897827148438" fill="#f1c40f" font-size="10">npc_2</text>
<circle cx="394.4404602050781" cy="242.77976989746094" r="5" fill="#a855f7" stroke="#000000" stroke-width="1.5"/>
<text x="400.4404602050781" y="242.77976989746094" fill="#a855f7" font-size="10">npc_anchor</text>
</svg>